<?xml version="1.0" encoding="UTF-8"?>
<svg width="220px" height="24px" viewBox="0 0 220 24" version="1.1" xmlns="http://www.w3.org/2000/svg" xmlns:xlink="http://www.w3.org/1999/xlink">
    <!-- Generator: Sketch 52.5 (67469) - http://www.bohemiancoding.com/sketch -->
    <title>mmp-light-logo</title>
    <desc>Created with Sketch.</desc>
    <g id="Page-1" stroke="none" stroke-width="1" fill="none" fill-rule="evenodd">
        <g id="mmp-light-logo" fill="#E6E6E6">
            <path d="M219.82,16 C219.82,13.8 218.65,13.08 216.82,12.18 C215.82,11.69 215.07,11.47 213.99,10.88 C212.899191,10.4689149 212.20511,9.39329088 212.28,8.23 C212.288812,7.62168475 212.550273,7.04444901 213.001722,6.63662718 C213.453171,6.22880535 214.05392,6.02715443 214.66,6.08 C217,6.08 218.07,7.69 218.97,10.3 L219.29,10.3 L219.15,5.67 L218.79,5.67 L218.11,7 C217.185419,6.23660772 216.037773,5.79439534 214.84,5.74 C212.905499,5.70070361 211.299895,7.22602685 211.24,9.16 L211.24,9.38 C211.147616,10.9725362 212.11717,12.4350148 213.62,12.97 C214.97,13.6 215.38,13.74 216.68,14.27 C217.865453,14.6890043 218.663858,15.8027797 218.68,17.06 C218.741517,17.8306696 218.455534,18.5885267 217.900217,19.1264293 C217.344901,19.6643319 216.578319,19.926032 215.81,19.84 C213.47,19.84 212.17,18.27 211.19,15.53 L210.92,15.53 L211.05,20.25 L211.41,20.25 L212.08,18.99 C213.126492,19.7952303 214.400171,20.2501156 215.72,20.29 C216.798531,20.3087136 217.840173,19.8974559 218.615021,19.1469971 C219.38987,18.3965384 219.834221,17.3685776 219.85,16.29 C219.898492,16.2210013 219.898492,16.1289987 219.85,16.06" id="Path"></path>
            <path d="M186.91,18.06 C186.64,17.06 186.51,15.95 186.19,14.83 C185.79,13.39 183.99,12.72 183.09,12.67 L183.09,12.54 C184.58,12.13 186.96,11.19 186.96,8.9 C186.96,6.61 184.58,5.71 182.96,5.71 L175.51,5.71 L175.51,6 C176.141602,6.05143508 176.76945,6.14160476 177.39,6.27 C177.846771,6.41406592 178.119431,6.88148286 178.02,7.35 L178.02,18.47 C178.050526,18.9050482 177.795592,19.3097061 177.39,19.47 C176.921716,19.5901205 176.442735,19.6638098 175.96,19.69 L175.96,20 L181.96,20 L181.96,19.64 C181.42,19.64 180.96,19.55 180.39,19.46 C179.967956,19.3201202 179.703957,18.9010743 179.76,18.46 L179.76,12.85 L181.76,12.85 C184.14,12.85 184.55,15.05 184.82,16.58 C185.17,18.91 185.76,19.95 187.33,19.95 L189.53,19.95 L189.53,19.63 C188,19.63 187.31,19.59 186.91,18.06 Z M181.34,12.36 L179.68,12.36 L179.68,6 L181.93,6 C183.41,6 184.84,6.67 184.84,9.14 C184.84,11.61 183.18,12.36 181.34,12.36 Z" id="Shape" fill-rule="nonzero"></path>
            <path d="M200.83,15.91 L200.69,15.91 C200.47,16.53 200.24,18.51 199.21,19 C198.712892,19.2664136 198.163201,19.4200539 197.6,19.45 C196.88,19.54 195.6,19.45 194.86,19.45 C192.75,19.45 192.39,19.27 192.39,17.57 L192.39,12.76 L194.39,12.76 C195.034717,12.6881844 195.672664,12.9433633 196.09,13.44 C196.417912,14.0607161 196.618505,14.7406911 196.68,15.44 L197.04,15.44 L197.04,9.74 L196.68,9.74 C196.641093,10.408813 196.43849,11.0578292 196.09,11.63 C195.672741,12.1259506 195.03343,12.3779144 194.39,12.3 L192.39,12.3 L192.39,6.1 L195.26,6.1 C195.831492,6.08400982 196.403344,6.11410726 196.97,6.19 C197.87,6.33 198.81,7.99 199.03,8.89 L199.35,8.89 L199.35,5.71 L188.35,5.71 L188.35,6 C188.902673,6.0534102 189.446723,6.1743103 189.97,6.36 C190.397346,6.49304462 190.664497,6.91709412 190.6,7.36 L190.6,18.47 C190.630526,18.9050482 190.375592,19.3097061 189.97,19.47 C189.440554,19.6069038 188.896782,19.6807494 188.35,19.69 L188.35,20 L200.61,20 L200.83,15.91 Z" id="Path"></path>
            <path d="M209.81,16 C209.81,13.8 208.6,13.08 206.71,12.18 C205.71,11.69 204.91,11.47 203.71,10.88 C202.587864,10.4947017 201.854581,9.41514654 201.91,8.23 C201.908184,7.58777245 202.182116,6.97565787 202.66223,6.54910214 C203.142344,6.12254641 203.782453,5.92258577 204.42,6 C206.84,6 207.97,7.61 208.87,10.22 L209.18,10.22 L209.09,5.55 L208.78,5.55 L208.06,6.81 C207.083607,6.03591071 205.885225,5.59440154 204.64,5.55 C202.662638,5.48237907 201.001282,7.02315268 200.92,9 L200.92,9.18 C200.846796,10.7946836 201.855816,12.2612347 203.39,12.77 C204.78,13.4 205.18,13.53 206.53,14.07 C207.733056,14.4593396 208.543302,15.5855827 208.53,16.85 C208.53,18.47 207.45,19.59 205.48,19.59 C201.8,19.59 200.81,15.78 200.81,15.78 L200.63,15.78 L200.45,19.78 L200.76,19.78 L201.44,18.39 C202.479778,19.4769009 203.937183,20.0635067 205.44,20 C206.567744,20.124077 207.69424,19.755987 208.531134,18.9899513 C209.368028,18.2239156 209.834082,17.1342937 209.81,16" id="Path"></path>
            <path d="M61.87,19.81 L61.87,19.5 C61.2337913,19.4608192 60.605283,19.3398229 60,19.14 C59.5035033,18.9533267 59.1925813,18.4583062 59.24,17.93 L59.24,4.55 C59.1602832,4.01206954 59.4820211,3.49559546 60,3.33 C60.5943866,3.1606238 61.203985,3.05009222 61.82,3 L61.82,2.73 L57.2,2.73 C57.1112272,3.45357987 56.9297376,4.16273339 56.66,4.84 L51.32,16.4 L44.85,2.75 L40.18,2.75 L40.18,3.07 C40.9843267,3.07506233 41.7684441,3.32249493 42.43,3.78 C42.9855985,4.2888051 43.2674888,5.0306217 43.19,5.78 L43.19,15.48 C43.19,17.41 42.97,18.54 42.38,18.98 C41.6500576,19.3289954 40.8580698,19.5295416 40.05,19.57 L40.05,19.88 L47.32,19.88 L47.32,19.57 C46.3834062,19.4820273 45.4712844,19.2209367 44.63,18.8 C44.09,18.36 43.78,17.23 43.78,15.35 L43.78,5.13 L48.89,16.13 C49.4190925,17.2536701 49.8864544,18.4053834 50.29,19.58 L50.47,19.58 L57.16,5 L57.16,18 C57.209961,18.555826 56.8764032,19.0746938 56.35,19.26 C55.6279494,19.4317714 54.8914015,19.5355577 54.15,19.57 L54.15,19.89 L61.87,19.89 L61.87,19.81 Z" id="Path"></path>
            <path d="M72.78,7.56 C70.0389808,4.72513461 65.5202912,4.6446035 62.68,7.38 L62.63,7.38 C61.2342419,8.85525771 60.4916795,10.8306179 60.57,12.86 C60.5116252,15.727815 62.1917777,18.3466797 64.822902,19.4890261 C67.4540262,20.6313726 70.5145967,20.0707718 72.57,18.07 C73.9938017,16.6281244 74.7451176,14.6536518 74.64,12.63 C74.7087629,10.7614909 74.0407958,8.94074195 72.78,7.56 Z M67.66,19.72 C64.34,19.72 62.54,16.72 62.54,12.94 C62.54,8.23 64.65,5.76 67.66,5.76 C70.67,5.76 72.73,8.27 72.73,12.76 C72.73,16.85 71,19.72 67.66,19.72 Z" id="Shape" fill-rule="nonzero"></path>
            <path d="M89.26,5.94 L89.26,5.67 L83.26,5.67 L83.26,5.94 C84.0187321,6.01939926 84.7607394,6.21501935 85.46,6.52 C85.9,6.79 86.17,7.87 86.17,9.31 L86.17,17.48 L76.87,5.71 L73.18,5.71 L73.18,5.94 C73.998505,6.07426348 74.7791018,6.38104826 75.47,6.84 C75.9255375,7.24832258 76.1749124,7.83875448 76.15,8.45 L76.15,16.18 C76.15,17.93 75.88,18.78 75.38,19.05 C74.7802316,19.2733558 74.1653498,19.4538103 73.54,19.59 L73.54,19.81 L79.6,19.81 L79.6,19.59 C78.828751,19.5118514 78.0808314,19.2806763 77.4,18.91 C76.96,18.56 76.64,17.66 76.64,16.09 L76.64,8 L86.16,20 L86.65,20 L86.65,9.17 C86.65,7.87 86.79,6.75 87.37,6.43 C87.9827344,6.20613237 88.6156795,6.04203551 89.26,5.94" id="Path"></path>
            <path d="M100.57,16 L100.26,16 C99.8834993,17.0800191 99.3365837,18.0928257 98.64,19 C98.15,19.54 96.44,19.45 94.96,19.45 C92.85,19.45 92.49,19.27 92.49,17.57 L92.49,12.72 L94.49,12.72 C95.1349064,12.6529464 95.7723019,12.9026861 96.2,13.39 C96.5440048,14.0034274 96.7424445,14.6877024 96.78,15.39 L97.14,15.39 L97.14,9.71 L96.78,9.71 C96.7441287,10.3779502 96.5449777,11.0269079 96.2,11.6 C95.7876946,12.1087934 95.1382026,12.3632727 94.49,12.27 L92.49,12.27 L92.49,6.07 L95.81,6.07 C96.3814955,6.05374787 96.953368,6.08384643 97.52,6.16 C98.37,6.3 99.36,7.96 99.58,8.86 L99.94,8.86 L99.94,5.71 L88.54,5.71 L88.54,6 C89.0926725,6.0534102 89.6367229,6.1743103 90.16,6.36 C90.5833494,6.49693296 90.8456003,6.91991822 90.78,7.36 L90.78,18.36 C90.8120481,18.7925121 90.5616497,19.1963806 90.16,19.36 C89.6319314,19.5050212 89.0875659,19.5823076 88.54,19.59 L88.54,20 L100.3,20 L100.57,16 Z" id="Path"></path>
            <path d="M113.64,5.94 L113.64,5.67 L108.25,5.67 L108.25,5.94 C109.19,5.94 110.81,6.3 110.81,6.94 C110.81,7.58 108.74,10.71 107.26,13.09 C105.82,10.39 103.94,6.94 103.94,6.67 C103.94,6.17 105.42,5.99 106.14,5.95 L106.14,5.72 L99.94,5.72 L99.94,6 C100.419937,6.01369091 100.892389,6.12245695 101.33,6.32 C101.862643,6.68417453 102.295778,7.17574802 102.59,7.75 C103.44,9.24 104.43,11.17 105.33,12.96 C105.541521,13.3736074 105.705886,13.8096777 105.82,14.26 L105.82,18.4 C105.852048,18.8325121 105.60165,19.2363806 105.2,19.4 C104.636979,19.5199964 104.065059,19.5935767 103.49,19.62 L103.49,19.89 L109.87,19.89 L109.87,19.62 C109.292809,19.5612724 108.721076,19.4576249 108.16,19.31 C107.754408,19.1497061 107.499474,18.7450482 107.53,18.31 L107.53,15.14 C107.552766,14.4055312 107.73714,13.6851081 108.07,13.03 C109.09233,11.0638931 110.231018,9.16051346 111.48,7.33 C111.76002,6.85195514 112.183336,6.47411914 112.69,6.25 C112.989894,6.05970639 113.335054,5.95270688 113.69,5.94" id="Path"></path>
            <path d="M137.57,19.81 L137.57,19.5 C136.929617,19.4429963 136.296497,19.322402 135.68,19.14 C135.181196,18.9561612 134.869026,18.4591537 134.92,17.93 L134.92,4.55 C134.816829,4.00744288 135.147529,3.47658327 135.68,3.33 C136.282116,3.16855725 136.898225,3.0647564 137.52,3.02 L137.52,2.75 L132.9,2.75 C132.811227,3.47357987 132.629738,4.18273339 132.36,4.86 L127,16.4 L120.53,2.75 L115.86,2.75 L115.86,3.07 C116.663843,3.07812073 117.447085,3.32527717 118.11,3.78 C118.665599,4.2888051 118.947489,5.0306217 118.87,5.78 L118.87,15.48 C118.87,17.41 118.65,18.54 118.06,18.98 C117.330058,19.3289954 116.53807,19.5295416 115.73,19.57 L115.73,19.88 L123,19.88 L123,19.57 C122.063406,19.4820273 121.151284,19.2209367 120.31,18.8 C119.77,18.36 119.45,17.23 119.45,15.35 L119.45,5.13 L124.57,16.13 C125.108675,17.2653187 125.572987,18.4344498 125.96,19.63 L126.19,19.63 L132.94,5 L132.94,18 C132.992557,18.5540922 132.657213,19.0715988 132.13,19.25 C131.40744,19.420821 130.671283,19.5278985 129.93,19.57 L129.93,19.88 L137.57,19.88 L137.57,19.81 Z" id="Path"></path>
            <path d="M149,19.23 C148.600911,19.015521 148.297383,18.6584292 148.15,18.23 C147.39,16.34 145.27,10.77 143.15,5.47 L142.89,5.47 C141.31,9.47 139.47,14.05 138.04,17.6 C137.773681,18.2671837 137.30054,18.8314484 136.69,19.21 C136.256889,19.4336508 135.785156,19.572795 135.3,19.62 L135.3,19.89 L141,19.89 L141,19.62 C140.1,19.57 138.53,19.26 138.53,18.5 C138.579383,18.1058751 138.652854,17.7151439 138.75,17.33 C139.026066,16.4261038 139.360091,15.5409365 139.75,14.68 L144.96,14.68 L146.4,18.32 C146.449245,18.4792061 146.479455,18.6436857 146.49,18.81 C146.49,19.35 145.05,19.57 144.29,19.62 L144.29,19.84 L150.29,19.84 L150.29,19.62 C149.834451,19.5981795 149.391337,19.4642148 149,19.23 Z M139.89,14.23 L142.28,8 L144.71,14.24 L139.89,14.23 Z" id="Shape" fill-rule="nonzero"></path>
            <path d="M154.67,13 C157.14,13 159.61,11.7 159.61,9 C159.61,6.94 157.55,5.68 155.61,5.68 L148.97,5.68 L148.97,5.95 C149.50056,5.99123113 150.026147,6.08161882 150.54,6.22 C150.992802,6.373536 151.273572,6.82612036 151.21,7.3 L151.21,18.38 C151.240526,18.8150482 150.985592,19.2197061 150.58,19.38 C150.111716,19.5001205 149.632735,19.5738098 149.15,19.6 L149.15,19.83 L155.21,19.83 L155.21,19.6 C154.651185,19.6126333 154.093119,19.5521201 153.55,19.42 C153.127956,19.2801202 152.863957,18.8610743 152.92,18.42 L152.92,13 L154.67,13 Z M152.79,6 L154.45,6 C156.92,6 157.55,8 157.55,9.5 C157.55,10.22 157.32,12.64 154.04,12.64 L152.79,12.64 L152.79,6 Z" id="Shape" fill-rule="nonzero"></path>
            <rect id="Rectangle" x="4.04" y="23.04" width="215.96" height="1"></rect>
            <polygon id="Path" points="3.14 18.82 3.28 16.71 4.45 15.19 0 15.01"></polygon>
            <polygon id="Path" points="3.1 9.04 5.25 13.84 5.84 11.86 7.36 10.79"></polygon>
            <polygon id="Path" points="7.45 4.46 8.4 9.75 9.47 8.05 11.14 7.55"></polygon>
            <polygon id="Path" points="12.75 1.49 12.39 6.93 13.78 5.67 15.54 5.71"></polygon>
            <polygon id="Path" points="18.45 0.51 16.88 5.58 18.5 4.86 20.16 5.54"></polygon>
            <polygon id="Path" points="24.2 1.49 21.51 5.8 23.21 5.71 24.65 6.93"></polygon>
            <polygon id="Path" points="29.45 4.46 25.86 7.64 27.57 8.14 28.65 9.75"></polygon>
            <polygon id="Path" points="33.81 9.08 29.63 10.92 31.11 11.95 31.79 13.89"></polygon>
            <polygon id="Path" points="36.91 15.01 32.46 15.32 33.67 16.85 33.85 18.96"></polygon>
            <path d="M26.18,9.8 C19.18,4.73 10.1,7.42 5.84,15.8 C5.12189602,17.2262859 4.57798817,18.7337836 4.22,20.29 L32.69,20.29 C31.8884457,16.1099463 29.5698246,12.3737964 26.18,9.8" id="Path"></path>
            <path d="M173.35,7.38 C173.35,8.27 173.04,11.15 169.13,11.15 L167.6,11.15 L167.6,3.15 L169.6,3.15 C172.6,3.15 173.33,5.57 173.33,7.37 M175.8,6.74 C175.8,4.27 173.33,2.74 170.91,2.74 L162.91,2.74 L162.91,3 C163.548227,3.04469558 164.180936,3.14847313 164.8,3.31 C165.326765,3.48838893 165.647928,4.02084366 165.56,4.57 L165.56,18 C165.630505,18.5431999 165.314705,19.0626077 164.8,19.25 C164.224348,19.3952366 163.633643,19.4724309 163.04,19.48 L163.04,19.79 L170.36,19.79 L170.36,19.5 C169.687294,19.4908054 169.017233,19.4137484 168.36,19.27 C167.831954,19.0991823 167.50864,18.5674165 167.6,18.02 L167.6,11.64 L169.84,11.64 C172.84,11.64 175.84,10.07 175.84,6.75" id="Shape" fill-rule="nonzero"></path>
        </g>
    </g>
</svg>