<svg id="Layer_1" data-name="Layer 1" xmlns="http://www.w3.org/2000/svg" viewBox="0 0 244 52"><defs><style>.cls-1{fill:#404041;}.cls-2{fill:gray;}.cls-3{fill:#487629;}</style></defs><title>mmp-logo</title><path class="cls-1" d="M231.82,30c0-2.2-1.17-2.92-3-3.82-1-.49-1.75-.71-2.83-1.3a2.65,2.65,0,0,1-1.71-2.65,2.19,2.19,0,0,1,2.38-2.15c2.34,0,3.41,1.61,4.31,4.22h.32l-.14-4.63h-.36L230.11,21a5.53,5.53,0,0,0-3.27-1.26,3.53,3.53,0,0,0-3.6,3.42v.22a3.59,3.59,0,0,0,2.38,3.59c1.35.63,1.76.77,3.06,1.3a3,3,0,0,1,2,2.79,2.59,2.59,0,0,1-2.87,2.78c-2.34,0-3.64-1.57-4.62-4.31h-.27l.13,4.72h.36l.67-1.26a6.28,6.28,0,0,0,3.64,1.3,4.06,4.06,0,0,0,4.13-4,.2.2,0,0,0,0-.23"/><path class="cls-1" d="M198.91,32.06c-.27-1-.4-2.11-.72-3.23-.4-1.44-2.2-2.11-3.1-2.16v-.13c1.49-.41,3.87-1.35,3.87-3.64s-2.38-3.19-4-3.19h-7.45V20a15.48,15.48,0,0,1,1.88.27.93.93,0,0,1,.63,1.08V32.47a1,1,0,0,1-.63,1,7.36,7.36,0,0,1-1.43.22V34h6v-.36c-.54,0-1-.09-1.57-.18a.93.93,0,0,1-.63-1V26.85h2c2.38,0,2.79,2.2,3.06,3.73.35,2.33.94,3.37,2.51,3.37h2.2v-.32C200,33.63,199.31,33.59,198.91,32.06Zm-5.57-5.7h-1.66V20h2.25c1.48,0,2.91.67,2.91,3.14S195.18,26.36,193.34,26.36Z"/><path class="cls-1" d="M212.83,29.91h-.14c-.22.62-.45,2.6-1.48,3.09a3.84,3.84,0,0,1-1.61.45c-.72.09-2,0-2.74,0-2.11,0-2.47-.18-2.47-1.88V26.76h2a1.94,1.94,0,0,1,1.7.68,5.27,5.27,0,0,1,.59,2h.36v-5.7h-.36a4.09,4.09,0,0,1-.59,1.89,1.92,1.92,0,0,1-1.7.67h-2v-6.2h2.87a10.64,10.64,0,0,1,1.71.09c.9.14,1.84,1.8,2.06,2.7h.32V19.71h-11V20a6.8,6.8,0,0,1,1.62.36.91.91,0,0,1,.63,1V32.47a1,1,0,0,1-.63,1,6.94,6.94,0,0,1-1.62.22V34h12.26Z"/><path class="cls-1" d="M221.81,30c0-2.2-1.21-2.92-3.1-3.82-1-.49-1.8-.71-3-1.3a2.67,2.67,0,0,1-1.8-2.65A2.24,2.24,0,0,1,216.42,20c2.42,0,3.55,1.61,4.45,4.22h.31l-.09-4.67h-.31l-.72,1.26a5.84,5.84,0,0,0-3.42-1.26A3.6,3.6,0,0,0,212.92,23v.18a3.61,3.61,0,0,0,2.47,3.59c1.39.63,1.79.76,3.14,1.3a2.89,2.89,0,0,1,2,2.78c0,1.62-1.08,2.74-3.05,2.74-3.68,0-4.67-3.81-4.67-3.81h-.18l-.18,4h.31l.68-1.39a5.23,5.23,0,0,0,4,1.61A3.94,3.94,0,0,0,221.81,30"/><path class="cls-1" d="M73.87,33.81V33.5A7.42,7.42,0,0,1,72,33.14a1.18,1.18,0,0,1-.76-1.21V18.55A1.11,1.11,0,0,1,72,17.33,9.43,9.43,0,0,1,73.82,17v-.27H69.2a8.5,8.5,0,0,1-.54,2.11L63.32,30.4,56.85,16.75H52.18v.32a4,4,0,0,1,2.25.71,2.38,2.38,0,0,1,.76,2v9.7c0,1.93-.22,3.06-.81,3.5a6.11,6.11,0,0,1-2.33.59v.31h7.27v-.31a7.6,7.6,0,0,1-2.69-.77c-.54-.44-.85-1.57-.85-3.45V19.13l5.11,11a34.13,34.13,0,0,1,1.4,3.45h.18L69.16,19V32a1.22,1.22,0,0,1-.81,1.26,11.89,11.89,0,0,1-2.2.31v.32h7.72Z"/><path class="cls-1" d="M84.78,21.56a7.15,7.15,0,0,0-10.1-.18l-.05,0a7.55,7.55,0,0,0-2.06,5.48,7.07,7.07,0,0,0,12,5.21,7.21,7.21,0,0,0,2.07-5.44A7.13,7.13,0,0,0,84.78,21.56ZM79.66,33.72c-3.32,0-5.12-3-5.12-6.78,0-4.71,2.11-7.18,5.12-7.18s5.07,2.51,5.07,7C84.73,30.85,83,33.72,79.66,33.72Z"/><path class="cls-1" d="M101.26,19.94v-.27h-6v.27a7.44,7.44,0,0,1,2.2.58c.44.27.71,1.35.71,2.79v8.17L88.87,19.71H85.18v.23a5.85,5.85,0,0,1,2.29.9,2.05,2.05,0,0,1,.68,1.61v7.73c0,1.75-.27,2.6-.77,2.87a13.51,13.51,0,0,1-1.84.54v.22H91.6v-.22a5.83,5.83,0,0,1-2.2-.68c-.44-.35-.76-1.25-.76-2.82V22l9.52,12h.49V23.17c0-1.3.14-2.42.72-2.74a10.12,10.12,0,0,1,1.89-.49"/><path class="cls-1" d="M112.57,30h-.31a10.72,10.72,0,0,1-1.62,3c-.49.54-2.2.45-3.68.45-2.11,0-2.47-.18-2.47-1.88V26.72h2a2,2,0,0,1,1.71.67,4.59,4.59,0,0,1,.58,2h.36V23.71h-.36a4.09,4.09,0,0,1-.58,1.89,1.86,1.86,0,0,1-1.71.67h-2v-6.2h3.32a10.58,10.58,0,0,1,1.71.09c.85.14,1.84,1.8,2.06,2.7h.36V19.71h-11.4V20a6.8,6.8,0,0,1,1.62.36.91.91,0,0,1,.62,1v11a1,1,0,0,1-.62,1,6.46,6.46,0,0,1-1.62.23V34H112.3Z"/><path class="cls-1" d="M125.64,19.94v-.27h-5.39v.27c.94,0,2.56.36,2.56,1s-2.07,3.77-3.55,6.15c-1.44-2.7-3.32-6.15-3.32-6.42,0-.5,1.48-.68,2.2-.72v-.23h-6.2V20a3.63,3.63,0,0,1,1.39.32,3.87,3.87,0,0,1,1.26,1.43c.85,1.49,1.84,3.42,2.74,5.21a6.2,6.2,0,0,1,.49,1.3v4.14a1,1,0,0,1-.62,1,10.52,10.52,0,0,1-1.71.22v.27h6.38v-.27a11.16,11.16,0,0,1-1.71-.31,1,1,0,0,1-.63-1V29.14a5,5,0,0,1,.54-2.11,55.73,55.73,0,0,1,3.41-5.7,2.64,2.64,0,0,1,1.21-1.08,2,2,0,0,1,1-.31"/><path class="cls-1" d="M149.57,33.81V33.5a9.69,9.69,0,0,1-1.89-.36,1.17,1.17,0,0,1-.76-1.21V18.55a1.06,1.06,0,0,1,.76-1.22,9.83,9.83,0,0,1,1.84-.31v-.27H144.9a8.5,8.5,0,0,1-.54,2.11L139,30.4l-6.47-13.65h-4.67v.32a4.05,4.05,0,0,1,2.25.71,2.38,2.38,0,0,1,.76,2v9.7c0,1.93-.22,3.06-.81,3.5a6.11,6.11,0,0,1-2.33.59v.31H135v-.31a7.6,7.6,0,0,1-2.69-.77c-.54-.44-.86-1.57-.86-3.45V19.13l5.12,11a29,29,0,0,1,1.39,3.5h.23L144.94,19V32a1.2,1.2,0,0,1-.81,1.25,12.69,12.69,0,0,1-2.2.32v.31h7.64Z"/><path class="cls-1" d="M161,33.23a1.8,1.8,0,0,1-.85-1c-.76-1.89-2.88-7.46-5-12.76h-.26c-1.58,4-3.42,8.58-4.85,12.13a3.36,3.36,0,0,1-1.35,1.61,3.84,3.84,0,0,1-1.39.41v.27H153v-.27c-.9-.05-2.47-.36-2.47-1.12a9.73,9.73,0,0,1,.22-1.17,22,22,0,0,1,1-2.65h5.21l1.44,3.64a2.11,2.11,0,0,1,.09.49c0,.54-1.44.76-2.2.81v.22h6v-.22A2.77,2.77,0,0,1,161,33.23Zm-9.11-5L154.28,22l2.43,6.24Z"/><path class="cls-1" d="M166.67,27c2.47,0,4.94-1.3,4.94-4,0-2.06-2.06-3.32-4-3.32h-6.64v.27a8.6,8.6,0,0,1,1.57.27,1,1,0,0,1,.67,1.08V32.38a1,1,0,0,1-.63,1,7.36,7.36,0,0,1-1.43.22v.23h6.06v-.23a6.41,6.41,0,0,1-1.66-.18.93.93,0,0,1-.63-1V27Zm-1.88-7h1.66c2.47,0,3.1,2,3.1,3.5,0,.72-.23,3.14-3.51,3.14h-1.25Z"/><rect class="cls-2" x="16.04" y="37.04" width="215.96" height="0.45"/><polygon class="cls-3" points="15.14 32.82 15.28 30.71 16.45 29.19 12 29.01 15.14 32.82"/><polygon class="cls-3" points="15.1 23.04 17.25 27.84 17.84 25.86 19.36 24.79 15.1 23.04"/><polygon class="cls-3" points="19.45 18.46 20.4 23.75 21.47 22.05 23.14 21.55 19.45 18.46"/><polygon class="cls-3" points="24.75 15.49 24.39 20.93 25.78 19.67 27.54 19.71 24.75 15.49"/><polygon class="cls-3" points="30.45 14.51 28.88 19.58 30.5 18.86 32.16 19.54 30.45 14.51"/><polygon class="cls-3" points="36.2 15.49 33.51 19.8 35.21 19.71 36.65 20.93 36.2 15.49"/><polygon class="cls-3" points="41.45 18.46 37.86 21.64 39.57 22.14 40.65 23.75 41.45 18.46"/><polygon class="cls-3" points="45.81 23.08 41.63 24.92 43.11 25.95 43.79 27.89 45.81 23.08"/><polygon class="cls-3" points="48.91 29.01 44.46 29.32 45.67 30.85 45.85 32.96 48.91 29.01"/><path class="cls-3" d="M38.18,23.8c-7-5.07-16.08-2.38-20.34,6a19.91,19.91,0,0,0-1.62,4.49H44.69A17.25,17.25,0,0,0,38.18,23.8"/><path class="cls-1" d="M185.35,21.38c0,.89-.31,3.77-4.22,3.77H179.6v-8h2c3,0,3.73,2.42,3.73,4.22m2.47-.63c0-2.47-2.47-4-4.89-4h-8V17a10.35,10.35,0,0,1,1.89.31,1.14,1.14,0,0,1,.76,1.26V32a1.17,1.17,0,0,1-.76,1.25,7.59,7.59,0,0,1-1.76.23v.31h7.32V33.5a10,10,0,0,1-2-.23,1.12,1.12,0,0,1-.76-1.25V25.64h2.24c3,0,6-1.57,6-4.89"/></svg>